<svg xmlns="http://www.w3.org/2000/svg">

<symbol id="shopping-icon" width="20" height="20" viewBox="0 0 20 20">
<g clip-path="url(#clip0_2_1949)">
<path class="shopping-icon" d="M14.294 16.8745H8.24077C5.65655 16.8745 3.55412 14.7721 3.55412 12.1879V7.38405C3.55412 4.98175 2.35676 2.75813 0.351225 1.4358C-0.00894369 1.19834 -0.108379 0.713895 0.129078 0.353726C0.366535 -0.00648163 0.850939 -0.105956 1.21119 0.131579C2.35606 0.886442 3.28487 1.88204 3.94905 3.02832C4.09258 3.18911 5.24995 4.41584 7.14726 4.41584H16.142C18.596 4.36995 20.5168 6.83267 19.8752 9.20138L18.8397 13.3284C18.3159 15.4163 16.4466 16.8745 14.294 16.8745ZM4.91926 5.53677C5.04912 6.1367 5.11634 6.7553 5.11634 7.38405V12.1879C5.11634 13.9107 6.51796 15.3123 8.24077 15.3123H14.294C15.7291 15.3123 16.9752 14.3401 17.3245 12.9482L18.3599 8.82121C18.7412 7.41373 17.5997 5.95084 16.142 5.97806H7.14722C6.28913 5.97806 5.54224 5.79305 4.91926 5.53677ZM7.85021 19.0226C7.85021 18.4833 7.41307 18.0462 6.87383 18.0462C5.57828 18.0978 5.57942 19.9479 6.87383 19.999C7.41307 19.999 7.85021 19.5618 7.85021 19.0226ZM15.6222 19.0226C15.6222 18.4833 15.1851 18.0462 14.6459 18.0462C13.3503 18.0978 13.3514 19.9479 14.6459 19.999C15.1851 19.999 15.6222 19.5618 15.6222 19.0226ZM16.9231 8.32138C16.9231 7.88998 16.5734 7.54027 16.142 7.54027H7.45966C6.42329 7.58152 6.42407 9.0616 7.45966 9.10249H16.142C16.5734 9.10249 16.9231 8.75279 16.9231 8.32138Z" 
fill="currentColor"/>
</g>
<defs>
<clipPath id="clip0_2_1949">
<rect width="20" height="20" fill="white"/>
</clipPath>
</defs>
</symbol>

<symbol id="heart-icon" width="20" height="20" viewBox="0 0 20 20" fill="none">
<path d="M10 18.8873C9.71527 18.8873 9.44077 18.7842 9.22684 18.5968C8.41888 17.8903 7.63992 17.2264 6.95267 16.6408L6.94916 16.6377C4.93423 14.9207 3.19427 13.4378 1.98364 11.9771C0.630341 10.3441 0 8.79578 0 7.10434C0 5.46097 0.563507 3.94485 1.58661 2.83508C2.62192 1.71219 4.04251 1.09375 5.58716 1.09375C6.74164 1.09375 7.79892 1.45874 8.72955 2.1785C9.19922 2.54181 9.62494 2.98645 10 3.5051C10.3752 2.98645 10.8008 2.54181 11.2706 2.1785C12.2012 1.45874 13.2585 1.09375 14.413 1.09375C15.9575 1.09375 17.3782 1.71219 18.4135 2.83508C19.4366 3.94485 20 5.46097 20 7.10434C20 8.79578 19.3698 10.3441 18.0165 11.9769C16.8059 13.4378 15.0661 14.9205 13.0515 16.6374C12.363 17.224 11.5828 17.8889 10.773 18.5971C10.5592 18.7842 10.2846 18.8873 10 18.8873ZM5.58716 2.26532C4.37363 2.26532 3.25882 2.74963 2.44781 3.62915C1.62476 4.52194 1.17142 5.75607 1.17142 7.10434C1.17142 8.52692 1.70013 9.79919 2.88559 11.2296C4.03137 12.6122 5.73563 14.0645 7.70889 15.7462L7.71255 15.7492C8.4024 16.3371 9.18442 17.0036 9.99832 17.7153C10.8171 17.0023 11.6003 16.3347 12.2916 15.7458C14.2647 14.0642 15.9688 12.6122 17.1146 11.2296C18.2999 9.79919 18.8286 8.52692 18.8286 7.10434C18.8286 5.75607 18.3752 4.52194 17.5522 3.62915C16.7413 2.74963 15.6264 2.26532 14.413 2.26532C13.524 2.26532 12.7078 2.54791 11.9872 3.10516C11.3449 3.60199 10.8975 4.23004 10.6352 4.66949C10.5003 4.89548 10.2629 5.03036 10 5.03036C9.73709 5.03036 9.49966 4.89548 9.36478 4.66949C9.10263 4.23004 8.65524 3.60199 8.01285 3.10516C7.29218 2.54791 6.47598 2.26532 5.58716 2.26532Z" 
fill="currentColor"/>
</symbol>

<symbol id="frame-icon" width="20" height="20" viewBox="0 0 20 20" fill="none">
<g clip-path="url(#clip0_2_1953)">
<path d="M14.5656 16.0023C10.5704 19.1859 4.98549 18.3049 2.02729 14.6536C-0.827886 11.1285 -0.64932 6.04314 2.44811 2.82458C5.64856 -0.50074 10.6802 -0.944658 14.3277 1.78316C15.6345 2.76027 16.6104 4.00337 17.246 5.50807C17.8853 7.02151 18.0795 8.59614 17.8578 10.2201C17.6368 11.8365 16.9918 13.2769 15.9423 14.6212C16.0272 14.6767 16.1178 14.7167 16.1827 14.7816C17.3365 15.9305 18.4859 17.0836 19.6397 18.2325C19.9132 18.5047 20.0493 18.8218 19.9682 19.204C19.8071 19.9644 18.9018 20.2579 18.3211 19.7359C18.0489 19.4918 17.7985 19.2227 17.54 18.9642C16.5923 18.0171 15.6451 17.0693 14.6973 16.1221C14.658 16.0847 14.6168 16.0497 14.5656 16.0023ZM15.9529 8.98636C15.9629 5.12659 12.8468 2.00605 8.97825 2.00043C5.12035 1.99481 2.00669 5.09037 1.98983 8.94765C1.97297 12.8168 5.08289 15.9461 8.96326 15.9642C12.8055 15.9823 15.9429 12.8499 15.9529 8.98636Z" 
fill="currentColor"/>
</g>
<defs>
<clipPath id="clip0_2_1953">
<rect width="19.9913" height="20" fill="white"/>
</clipPath>
</defs>
</symbol>


<symbol id="mail-icon" width="20" height="20" viewBox="0 0 20 20" fill="none">
<path d="M14.6208 7.51582C14.6208 7.51582 11.9457 10.7263 9.98917 10.7263C8.03345 10.7263 5.32835 7.51582 5.32835 7.51582" stroke="#46A358" stroke-width="1.5" stroke-linecap="round" stroke-linejoin="round"/>
<path fill-rule="evenodd" clip-rule="evenodd" d="M2.0434 9.97397C2.0434 4.27556 4.02752 2.37665 9.9799 2.37665C15.9323 2.37665 17.9164 4.27556 17.9164 9.97397C17.9164 15.6716 15.9323 17.5713 9.9799 17.5713C4.02752 17.5713 2.0434 15.6716 2.0434 9.97397Z" stroke="#46A358" stroke-width="1.5" stroke-linecap="round" stroke-linejoin="round"/>
</symbol>

<symbol id="call-icon" width="20" height="20" viewBox="0 0 20 20" fill="none">
<path d="M11.9604 2.29175C15.0446 2.63425 17.4813 5.06758 17.8279 8.15175" stroke="#46A358" stroke-width="1.5" stroke-linecap="round" stroke-linejoin="round"/>
<path d="M11.9604 5.24425C13.4363 5.53091 14.5896 6.68508 14.8771 8.16091" stroke="#46A358" stroke-width="1.5" stroke-linecap="round" stroke-linejoin="round"/>
<path fill-rule="evenodd" clip-rule="evenodd" d="M6.41709 13.5825C0.668773 7.83352 1.48617 5.20096 2.09214 4.35263C2.16999 4.21552 4.08875 1.34323 6.14551 3.02839C11.2507 7.23288 4.78761 6.63843 9.07452 10.9261C13.3623 15.2128 12.767 8.74996 16.9716 13.8541C18.6568 15.9117 15.7844 17.8303 15.6482 17.9073C14.7998 18.5141 12.1663 19.3315 6.41709 13.5825Z" stroke="#46A358" stroke-width="1.5" stroke-linecap="round" stroke-linejoin="round"/>
</symbol>

<symbol id="location-icon" width="20" height="20" viewBox="0 0 20 20" fill="none">
<path fill-rule="evenodd" clip-rule="evenodd" d="M12.0918 8.92542C12.0918 7.77436 11.1591 6.84166 10.0081 6.84166C8.85787 6.84166 7.92517 7.77436 7.92517 8.92542C7.92517 10.0756 8.85787 11.0083 10.0081 11.0083C11.1591 11.0083 12.0918 10.0756 12.0918 8.92542Z" stroke="#46A358" stroke-width="1.5" stroke-linecap="round" stroke-linejoin="round"/>
<path fill-rule="evenodd" clip-rule="evenodd" d="M9.99959 17.5C7.58457 17.5 3.75 13.2989 3.75 8.8322C3.75 5.33539 6.54758 2.5 9.99959 2.5C13.4516 2.5 16.25 5.33539 16.25 8.8322C16.25 13.2989 12.4154 17.5 9.99959 17.5Z" stroke="#46A358" stroke-width="1.5" stroke-linecap="round" stroke-linejoin="round"/>
</symbol>

<symbol id="static-plant" width="55" height="48" viewBox="0 0 55 48" fill="none">
        <g clip-path="url(#clip0_1_271)">
        <path d="M9.12947 1.35694C21.7024 3.02051 34.392 3.28199 47.0232 2.13688C47.8797 2.06024 47.8886 0.707744 47.0232 0.784385C34.392 1.9295 21.7024 1.66801 9.12947 0.0044472C8.27752 -0.108261 8.282 1.24874 9.12947 1.35694Z" fill="#727272"/>
        <path d="M12.0304 47.0306C17.4649 47.7249 22.9353 48.063 28.4147 47.9864C33.2349 47.9188 38.925 48.1306 43.4448 46.2236C44.2295 45.89 43.8843 44.5826 43.0861 44.9207C38.4497 46.8773 32.5085 46.6113 27.5493 46.6429C22.3569 46.679 17.1779 46.3363 12.0259 45.6781C11.1739 45.5699 11.1784 46.9224 12.0304 47.0306Z" fill="#727272"/>
        <path d="M8.60473 0.315622C2.3317 6.16741 -0.59183 14.891 0.0986962 23.3982C0.452927 27.7938 1.69049 32.0677 3.55133 36.053C5.24626 39.6867 7.74381 44.8938 11.4924 46.7828C12.2636 47.1705 12.9452 46.0074 12.1695 45.6151C8.68096 43.8569 6.30895 38.7941 4.71267 35.3723C2.85632 31.3824 1.64117 27.0499 1.39007 22.6453C0.941677 14.7062 3.71275 6.72193 9.55981 1.27138C10.1965 0.680795 9.24145 -0.274967 8.60473 0.315622Z" fill="#727272"/>
        <path d="M46.5478 1.95203C53.1661 6.12222 53.7893 15.1163 53.6279 22.1989C53.4486 30.0974 52.4755 42.6125 43.0862 44.9208C42.2477 45.1281 42.6019 46.431 43.4449 46.2237C53.2468 43.8162 54.6547 31.3958 54.9507 23.0374C55.2242 15.2155 54.5337 5.38737 47.2248 0.784378C46.4895 0.32453 45.8169 1.49218 46.5478 1.95203Z" fill="#727272"/>
        <path d="M13.5774 1.36591C8.64058 6.70826 6.46138 15.6302 7.2954 22.7849C7.77966 26.9461 9.08897 31.0757 10.062 35.1377C11.0395 39.2087 12.0484 43.2481 14.2634 46.8413C14.7208 47.5806 15.8821 46.8999 15.4248 46.1605C13.3442 42.7883 12.3757 39.0193 11.4565 35.2008C10.5687 31.522 9.53288 27.8387 8.84684 24.1194C7.5465 17.0368 9.58221 7.67755 14.528 2.32168C15.1154 1.6815 14.1648 0.725734 13.5774 1.36591Z" fill="#727272"/>
        <path d="M20.2404 1.92957C16.5636 8.43957 14.631 15.8332 14.7297 23.326C14.779 26.9237 15.2902 30.5258 16.2677 33.9882C17.4828 38.2846 19.3302 42.3601 20.1373 46.7738C20.2942 47.6303 21.5901 47.2652 21.4332 46.4131C20.7292 42.5495 19.236 38.9518 18.0478 35.228C16.8954 31.6123 16.2049 27.8839 16.0883 24.0834C15.8551 16.5681 17.7115 9.14287 21.4018 2.61033C21.8322 1.85293 20.6709 1.17218 20.2404 1.92957Z" fill="#727272"/>
        <path d="M24.2045 3.22343C25.4825 10.7343 23.931 18.2586 24.061 25.8011C24.1193 29.2454 24.8861 32.4508 25.3345 35.8411C25.8008 39.3621 25.0027 42.9822 24.5677 46.4762C24.4601 47.3373 25.8053 47.3282 25.9129 46.4762C26.3523 42.9507 27.146 39.3034 26.6797 35.7509C26.2044 32.1172 25.4017 28.6728 25.3973 24.976C25.3883 17.5779 26.7514 10.2339 25.5004 2.86727C25.3524 2.01069 24.0566 2.37136 24.2045 3.22343Z" fill="#727272"/>
        <path d="M29.2486 2.59676C31.6116 9.38177 31.8986 16.541 32.1363 23.6596C32.3963 31.3914 32.0107 39.0014 30.5759 46.6114C30.4144 47.4635 31.7103 47.8287 31.8717 46.9721C33.329 39.2448 33.746 31.5086 33.4815 23.6596C33.2393 16.4238 32.9434 9.12931 30.5445 2.2361C30.262 1.4246 28.9616 1.77625 29.2486 2.59676Z" fill="#727272"/>
        <path d="M34.9077 2.62837C35.4054 4.15668 36.4815 5.17556 37.3066 6.51904C38.2482 8.05187 38.7638 9.78757 39.0418 11.5548C39.6472 15.4139 39.3602 19.4534 39.3512 23.3441C39.3423 27.5774 39.6651 32.0541 38.5755 36.1882C37.616 39.8174 35.4143 42.9462 34.679 46.652C34.5086 47.5041 35.8044 47.8648 35.9748 47.0127C36.764 43.0454 39.2033 39.6867 40.0642 35.7374C40.9475 31.698 40.6875 27.4511 40.6964 23.3441C40.7054 19.5481 40.9341 15.6664 40.4364 11.8929C40.2166 10.2249 39.84 8.57483 39.1226 7.05102C38.3244 5.35139 36.7864 4.0575 36.208 2.27221C35.9345 1.44719 34.6341 1.79884 34.9077 2.62837Z" fill="#727272"/>
        <path d="M41.4498 2.41635C44.1223 4.941 45.4091 8.97143 46.3732 12.4518C47.3776 16.0765 47.0413 19.9447 46.8171 23.655C46.3642 31.1839 45.0997 38.7038 41.5081 45.4121C41.0956 46.1785 42.2569 46.8638 42.6695 46.0929C46.4987 38.9382 47.7767 30.8954 48.2026 22.8706C48.4179 18.8311 48.5927 14.8863 47.3327 10.9957C46.2387 7.61894 45.0325 3.94917 42.4004 1.45608C41.7727 0.865487 40.8176 1.82125 41.4498 2.41635Z" fill="#727272"/>
        <path d="M13.4697 5.79768C13.3307 6.15384 13.1783 6.50549 13.0124 6.85263C12.8016 7.28993 13.0482 7.88954 13.5953 7.87151C13.9854 7.85798 14.2948 7.68216 14.5728 7.41617C14.6625 7.33051 14.7521 7.24034 14.8373 7.15469C14.9494 7.04198 14.8015 7.22231 14.8867 7.11862C14.8687 7.14567 14.7746 7.13665 14.8598 7.14567C14.6445 6.86165 14.4293 6.57311 14.2096 6.28909C14.1513 6.59115 14.0885 6.8932 14.0302 7.19977C13.9585 7.55593 14.1334 7.93012 14.501 8.03381C14.8329 8.12397 15.2588 7.9211 15.3306 7.56043C15.3889 7.25838 15.4516 6.95632 15.5099 6.64975C15.5996 6.18991 15.3171 5.83826 14.8598 5.79318C14.4876 5.75711 14.1513 5.95547 13.8867 6.19892C13.7926 6.28458 13.7119 6.37475 13.6177 6.46041C13.5863 6.48746 13.5594 6.51451 13.528 6.54156C13.5415 6.52803 13.5549 6.51901 13.5684 6.50549C13.5011 6.54156 13.5011 6.54606 13.5774 6.51451C13.5011 6.53254 13.5056 6.53705 13.5908 6.51451C13.7836 6.85263 13.9764 7.19075 14.1737 7.53338C14.3889 7.08255 14.5862 6.6227 14.7656 6.15835C14.8956 5.81572 14.6221 5.41448 14.2948 5.32431C13.9181 5.22062 13.6043 5.45505 13.4697 5.79768Z" fill="#727272"/>
        <path d="M10.1385 13.8902C10.0757 14.2689 10.0129 14.6476 9.95013 15.0217C9.9008 15.3238 9.98151 15.6213 10.2595 15.7836C10.5061 15.9279 10.8783 15.9009 11.0756 15.68C11.2056 15.5312 11.3357 15.3824 11.4657 15.2336C11.5509 15.1345 11.672 14.9496 11.7751 14.8955C11.663 14.9271 11.5509 14.9586 11.4343 14.9857C11.4567 14.9812 11.4836 14.9812 11.5061 14.9767C11.394 14.9451 11.2819 14.9135 11.1653 14.8865C11.1832 14.9 11.2011 14.9135 11.2191 14.9271C11.107 14.7332 10.9949 14.5394 10.8873 14.341C10.9231 14.7287 10.8155 15.1615 10.7707 15.5537C10.7079 16.1173 11.376 16.3246 11.7841 16.1398C12.3132 15.8918 12.6674 15.4365 12.8557 14.891C12.4791 14.9902 12.1069 15.0894 11.7303 15.1886C11.7168 15.1029 11.7033 15.0172 11.6899 14.9316C11.4702 15.7746 12.7705 16.1353 12.9858 15.2922C13.0844 14.909 12.9947 14.4898 12.6808 14.2328C12.2773 13.9037 11.7347 14.0209 11.5554 14.5303C11.4747 14.7558 11.3088 14.873 11.1025 14.9722C11.4388 15.166 11.7751 15.3599 12.1159 15.5582C12.1831 14.9541 12.506 13.8811 11.6809 13.6512C10.9859 13.4574 10.4972 14.2869 10.1205 14.7242C10.4972 14.9451 10.8693 15.1615 11.246 15.3824C11.3088 15.0037 11.3715 14.625 11.4343 14.2508C11.4926 13.8902 11.3401 13.5205 10.9635 13.4168C10.6451 13.3311 10.1967 13.5295 10.1385 13.8902Z" fill="#727272"/>
        <path d="M9.55998 22.0366C9.60482 22.5686 9.65415 23.1005 9.69899 23.628C9.76624 24.3809 10.7751 24.5567 11.0217 23.8083C11.1563 23.3936 11.3446 23.0194 11.5822 22.6497C11.1742 22.5956 10.7617 22.5415 10.3536 22.4874C10.5106 22.8796 10.6182 23.2809 10.6765 23.7047C10.7437 24.1825 11.3222 24.2637 11.663 24.1104C11.8333 24.0338 11.9723 23.885 12.062 23.7227C12.1024 23.6506 12.1338 23.5649 12.1607 23.4883C12.1741 23.4477 12.1831 23.4071 12.1965 23.3665C12.219 23.2989 12.21 23.3034 12.1786 23.3801C12.08 23.4387 11.9813 23.4973 11.8827 23.5559C11.9051 23.5469 11.932 23.5424 11.9544 23.5333C11.8333 23.5333 11.7168 23.5333 11.5957 23.5333C11.5867 23.5288 11.5778 23.5243 11.5733 23.5153C11.4926 23.4342 11.4119 23.353 11.3311 23.2719C11.3446 23.2899 11.3536 23.3079 11.367 23.326C11.3446 23.1501 11.3222 22.9788 11.2998 22.803C11.2953 22.8255 11.2953 22.8481 11.2908 22.8661C11.2415 23.2268 11.376 23.5919 11.7616 23.7001C12.0755 23.7858 12.5418 23.5919 12.5911 23.2268C12.6315 22.9337 12.6091 22.6677 12.3938 22.4468C12.2145 22.2665 11.941 22.1808 11.6899 22.2079C11.4298 22.2394 11.2011 22.3927 11.0621 22.6136C11.0038 22.7083 10.9231 22.8391 10.9186 22.9473C10.9141 23.105 10.8469 22.9923 10.9904 22.9292C11.3177 23.0645 11.6495 23.1997 11.9768 23.335C11.9185 22.9157 11.8109 22.5145 11.654 22.1177C11.4388 21.5857 10.7572 21.4325 10.4254 21.9554C10.1294 22.4198 9.90076 22.9157 9.73037 23.4342C10.1698 23.4928 10.6092 23.5559 11.0531 23.6145C11.0083 23.0825 10.959 22.5505 10.9141 22.023C10.8827 21.6579 10.6272 21.3468 10.2415 21.3468C9.89628 21.3603 9.5286 21.6714 9.55998 22.0366Z" fill="#727272"/>
        <path d="M11.1786 31.5762C11.2234 32.3561 11.6135 33.0369 12.2906 33.4336C12.739 33.6906 13.295 33.3615 13.304 32.8475C13.3084 32.4508 13.3981 32.0856 13.5506 31.7204C13.1739 31.8196 12.8018 31.9188 12.4251 32.018C12.6089 32.2434 12.8062 32.4418 13.026 32.6266C13.3847 32.9287 14.0393 32.8701 14.1514 32.3291C14.1783 32.2073 14.2097 32.1036 14.2501 31.9909C13.8734 32.0901 13.5013 32.1893 13.1246 32.2885C13.165 32.2659 13.1874 32.293 13.1829 32.3651C13.3264 32.7033 13.8196 32.7754 14.1021 32.6086C14.4474 32.4057 14.4877 32.0225 14.3442 31.6844C14.2859 31.5491 14.1918 31.4274 14.0752 31.3327C13.6582 31.0036 13.147 31.1253 12.9497 31.6303C12.9049 31.743 12.8735 31.8512 12.8511 31.9684C13.2277 31.8692 13.5999 31.77 13.9766 31.6708C13.7568 31.486 13.5595 31.2831 13.3757 31.0622C13.017 30.6204 12.4251 30.9495 12.2502 31.3598C12.0529 31.8331 11.9633 32.3336 11.9543 32.8475C12.2906 32.6537 12.6269 32.4598 12.9677 32.2614C12.7076 32.1127 12.5372 31.8782 12.5193 31.5717C12.4744 30.7151 11.1292 30.7061 11.1786 31.5762Z" fill="#727272"/>
        <path d="M13.9497 40.8498C14.1066 41.2555 14.2949 41.6297 14.5505 41.9859C14.9496 42.5359 15.7433 42.333 15.806 41.6433C15.8105 41.6027 15.8823 41.1023 15.8554 41.0797C15.6625 41.2014 15.4742 41.3232 15.2814 41.4449C15.3263 41.508 15.3666 41.5666 15.4159 41.6252C15.5863 41.8416 15.7971 42.0265 16.0706 42.1031C16.2813 42.1572 16.5279 42.1302 16.7118 42.0129C16.8329 41.9318 16.918 41.8371 16.9808 41.7064C17.0032 41.6523 17.0257 41.5982 17.0481 41.5441C17.1512 41.2195 16.9539 41.1654 16.4607 41.3818C16.7297 42.2023 18.0301 41.8506 17.7565 41.0211C17.5682 40.4531 17.0212 40.0834 16.4248 40.3088C16.1827 40.4035 15.9719 40.5838 15.8554 40.8182C15.8195 40.8904 15.6894 41.2014 15.7343 41.2916C15.9944 41.1428 16.2499 40.9896 16.51 40.8408C16.4741 40.7957 16.4383 40.7551 16.4069 40.71C16.1917 40.2727 15.5684 40.0248 15.12 40.1871C14.4878 40.4125 14.5147 41.0887 14.4653 41.6478C14.8823 41.5351 15.2993 41.4224 15.7208 41.3051C15.537 41.0527 15.3711 40.7867 15.2545 40.4936C14.9317 39.6912 13.6313 40.0383 13.9497 40.8498Z" fill="#727272"/>
        <path d="M21.1374 5.98245C20.6532 6.34762 20.2496 6.78042 19.9851 7.33494C19.6398 8.05627 20.4424 8.62432 21.0433 8.15545C21.1868 8.04274 21.3303 7.93004 21.4737 7.81733C21.5365 7.76774 21.5993 7.71815 21.6666 7.66855C21.6979 7.6415 21.7293 7.61896 21.7607 7.59191C21.8728 7.51076 21.8145 7.52429 21.5858 7.62798C21.4737 7.59642 21.3616 7.56486 21.2451 7.53781C21.2585 7.54683 21.272 7.55585 21.2854 7.56486C21.2047 7.48371 21.124 7.40256 21.0433 7.32141C21.0298 7.26281 21.0119 7.20871 20.9984 7.1501C21.0029 7.08698 21.0029 7.07797 20.9895 7.13206C20.9581 7.15461 20.9491 7.30789 20.9491 7.33043C20.9177 7.53781 20.9357 7.74069 21.0433 7.93004C21.1419 8.10135 21.3168 8.25463 21.5096 8.30423C21.5903 8.32677 21.6935 8.33578 21.7787 8.33578C21.8594 8.33578 21.9311 8.32226 22.0028 8.29521C22.097 8.26816 22.0656 8.25914 21.9042 8.26816C21.8056 8.20955 21.7069 8.15094 21.6083 8.09234C21.6217 8.10586 21.6352 8.11939 21.6486 8.13291C21.5903 8.03373 21.532 7.93454 21.4737 7.83536C21.4782 7.84889 21.4827 7.86692 21.4872 7.88044C21.5096 7.70462 21.532 7.5333 21.5545 7.35748C21.5455 7.37101 21.541 7.38453 21.532 7.39806C21.124 8.16447 22.2853 8.84973 22.6934 8.07881C22.8683 7.75421 22.8279 7.38904 22.5544 7.13206C22.4109 6.99682 22.2181 6.91567 22.0208 6.91116C21.9087 6.90665 21.7787 6.97878 21.68 6.96977C21.7921 7.00132 21.9042 7.03288 22.0208 7.05993C22.0029 7.04641 21.9849 7.03288 21.9715 7.02387C22.0522 7.10502 22.1329 7.18617 22.2136 7.26731C22.2046 7.24928 22.1957 7.23125 22.1867 7.21321C22.2181 7.32592 22.2495 7.43863 22.2764 7.55585C22.2674 7.47019 22.2809 7.51527 22.3122 7.38904C22.3481 7.23125 22.3526 7.05993 22.3167 6.89763C22.2405 6.57303 21.9984 6.3386 21.6755 6.27999C21.3392 6.21688 21.1105 6.3927 20.855 6.59107C20.5994 6.78943 20.3438 6.99231 20.0882 7.19067C20.4424 7.46568 20.7922 7.73618 21.1464 8.01119C21.3078 7.67757 21.5141 7.37101 21.8145 7.14559C22.106 6.92919 22.2539 6.55951 22.0567 6.22139C21.8908 5.93736 21.4334 5.76605 21.1374 5.98245Z" fill="#727272"/>
        <path d="M18.5051 13.5926C18.393 14.1336 18.2853 14.6746 18.1732 15.2201C18.0342 15.9099 18.7786 16.3066 19.2987 15.8783C19.4512 15.7521 19.5857 15.5943 19.6843 15.423C19.7516 15.3057 19.8323 15.0668 19.8682 15.0082C19.7875 15.0893 19.7067 15.1705 19.626 15.2516C19.6485 15.2381 19.6664 15.2246 19.6888 15.2066C19.5767 15.2381 19.4646 15.2697 19.348 15.2967C19.3749 15.2922 19.4018 15.2922 19.4287 15.2877C19.3166 15.2561 19.2045 15.2246 19.088 15.1975C18.9803 15.1479 18.9759 14.9721 19.0073 15.202C19.0162 15.2607 19.0297 15.3102 19.0476 15.3643C19.1104 15.5672 19.2225 15.7476 19.3929 15.8738C19.5498 15.991 19.7337 16.0541 19.9309 16.0496C20.052 16.0451 20.1641 16.0135 20.2717 15.9594C20.33 15.9369 20.3793 15.9053 20.4242 15.8648C20.5408 15.7836 20.5094 15.7881 20.3345 15.8693C20.2224 15.8377 20.1103 15.8062 19.9937 15.7791C20.0117 15.7881 20.0161 15.7971 20.0296 15.8332C20.3166 16.6492 21.6169 16.2976 21.3254 15.4725C21.1999 15.1164 21.0161 14.7873 20.6708 14.6115C20.4914 14.5168 20.2672 14.4897 20.0699 14.5348C19.8727 14.5799 19.7561 14.7106 19.5857 14.7918C19.6978 14.7602 19.8099 14.7287 19.9265 14.7016C19.904 14.7016 19.8771 14.7016 19.8547 14.7016C19.9668 14.7332 20.0789 14.7647 20.1955 14.7918C20.3166 15.0037 20.3524 15.0352 20.3031 14.8865C20.2941 14.8279 20.2852 14.7693 20.2762 14.7106C20.2448 14.5934 20.1955 14.4717 20.1327 14.3725C19.9668 14.111 19.6933 13.9397 19.3839 13.9442C19.079 13.9487 18.801 14.1246 18.6575 14.3906C18.5364 14.616 18.5454 14.7512 18.3391 14.9225C18.7158 15.1434 19.088 15.3598 19.4646 15.5807C19.5767 15.0397 19.6843 14.4988 19.7964 13.9578C19.9758 13.1012 18.6799 12.7405 18.5051 13.5926Z" fill="#727272"/>
        <path d="M17.9854 20.5038C17.8464 21.2296 17.7567 21.96 17.7343 22.6948C17.7163 23.2088 18.3172 23.5334 18.7476 23.2809C18.9449 23.1637 19.0884 23.0059 19.196 22.803C19.2364 22.7264 19.353 22.5506 19.3306 22.4829C19.3261 22.4739 19.2857 22.5325 19.3037 22.5235C19.1916 22.5551 19.0795 22.5866 18.9629 22.6137C18.9539 22.6182 18.9405 22.6182 18.9315 22.6227C18.8508 22.5416 18.7701 22.4604 18.6894 22.3793C18.7656 22.4784 18.7566 22.4694 18.7656 22.5731C18.8149 23.1276 19.4785 23.4973 19.9135 23.051C19.9628 22.9969 20.0121 22.9473 20.0659 22.8977C19.9718 22.9428 19.8731 22.9338 19.779 22.8797C19.7207 22.7805 19.6624 22.6813 19.6041 22.5821C19.613 22.6092 19.622 22.6362 19.6355 22.6633C19.761 23.0059 20.0928 23.2403 20.465 23.1367C20.7923 23.0465 21.0614 22.6498 20.9358 22.3026C20.5861 21.3469 19.5682 21.4686 18.9629 22.0952C19.344 22.253 19.7296 22.4153 20.1108 22.5731C20.057 21.9194 19.7341 21.2116 18.9629 21.2612C18.649 21.2792 18.371 21.4641 18.2051 21.7301C18.1468 21.8247 18.1064 21.9329 18.0616 22.0366C18.0123 22.1493 17.9271 22.1899 18.0661 22.1088C18.4024 22.3026 18.7387 22.4965 19.0795 22.6948C19.0974 22.0772 19.1647 21.4686 19.2812 20.86C19.4471 20.0124 18.1513 19.6517 17.9854 20.5038Z" fill="#727272"/>
        <path d="M18.6534 28.2266C18.8059 28.8307 18.9897 29.4213 19.2049 30.0029C19.3798 30.4762 19.9403 30.6746 20.3304 30.3004C20.5008 30.1336 20.6174 29.9398 20.6757 29.7053C20.6981 29.6106 20.716 29.4979 20.7205 29.4033C20.734 29.1147 20.7026 29.3537 20.7295 29.3402C20.6174 29.3717 20.5053 29.4033 20.3887 29.4303C20.4201 29.4303 20.447 29.4258 20.4784 29.4258C20.3663 29.3942 20.2542 29.3627 20.1376 29.3356C20.0479 29.2951 20.0748 29.2545 20.1466 29.3807C20.1824 29.4438 20.2138 29.4979 20.2587 29.5565C20.3977 29.7369 20.5681 29.8586 20.7967 29.8902C20.9985 29.9172 21.1913 29.8676 21.3617 29.7504C21.4559 29.6828 21.5411 29.6061 21.6039 29.507C21.6308 29.4529 21.6577 29.3988 21.6801 29.3447C21.7698 29.1688 21.6935 29.2139 21.4514 29.4844C21.3303 29.4844 21.2138 29.4844 21.0927 29.4844C21.0389 29.4393 20.9896 29.3897 20.9357 29.3447C20.9044 29.2319 20.873 29.1192 20.8461 29.002C20.8461 29.0291 20.8461 29.0561 20.8461 29.0832C20.8326 29.9533 22.1778 29.9533 22.1913 29.0832C22.2002 28.6278 21.8863 28.2717 21.4514 28.1815C21.2182 28.1319 20.9851 28.1815 20.7923 28.3213C20.6981 28.3889 20.6219 28.4655 20.5591 28.5602C20.5456 28.5873 20.5322 28.6188 20.5143 28.6459C20.3977 28.8713 20.4291 28.8668 20.6129 28.6323C20.725 28.6008 20.8371 28.5692 20.9537 28.5422C20.9313 28.5467 20.9088 28.5467 20.8864 28.5512C20.9985 28.5828 21.1106 28.6143 21.2272 28.6414C21.42 28.736 21.3214 28.7045 21.2496 28.5782C21.1958 28.4791 21.1241 28.3844 21.0434 28.3123C20.7878 28.0823 20.4515 28.0237 20.1331 28.1364C19.8775 28.2266 19.6847 28.425 19.5547 28.6549C19.4829 28.7856 19.4471 28.9164 19.4202 29.0606C19.4067 29.1237 19.4202 29.3041 19.3798 29.3447C19.7565 29.4438 20.1286 29.543 20.5053 29.6422C20.2901 29.0606 20.1062 28.4655 19.9538 27.8659C19.734 27.0274 18.4382 27.3835 18.6534 28.2266Z" fill="#727272"/>
        <path d="M19.3302 34.687C19.5724 35.4038 19.8818 36.0936 20.2629 36.7428C20.5364 37.2072 21.1418 37.1531 21.4242 36.7428C21.5005 36.6301 21.5543 36.5129 21.5901 36.3821C21.5946 36.3416 21.5991 36.3055 21.6081 36.2649C21.6798 36.0034 21.617 36.0125 21.4108 36.2965C21.2897 36.2965 21.1731 36.2965 21.0521 36.2965C20.8637 36.2379 20.9489 36.2514 21.0476 36.3596C21.1193 36.4362 21.209 36.5174 21.3032 36.5715C21.496 36.6797 21.7247 36.7203 21.9444 36.7022C22.4466 36.6662 22.7918 36.3326 22.9577 35.8772C23.2582 35.0612 21.9578 34.7051 21.6619 35.5165C21.7471 35.2911 21.9578 35.4174 21.922 35.3092C21.8951 35.2325 21.7381 35.1288 21.6664 35.0883C21.4467 34.962 21.1821 34.935 20.9445 35.0161C20.7247 35.0883 20.5499 35.2551 20.4378 35.4579C20.3391 35.6383 20.366 35.9088 20.2584 36.0621C20.644 36.0621 21.0341 36.0621 21.4198 36.0621C21.0924 35.5075 20.8279 34.9395 20.6216 34.3309C20.3526 33.5103 19.0522 33.862 19.3302 34.687Z" fill="#727272"/>
        <path d="M21.1016 42.4007C21.1061 42.7749 21.1599 43.149 21.2765 43.5007C21.3617 43.7577 21.5635 43.947 21.837 43.9831C22.0836 44.0146 22.393 43.9019 22.5051 43.6585C22.5813 43.4962 22.6575 43.3339 22.7338 43.1761C22.7696 43.0995 22.8055 43.0273 22.8369 42.9507C22.8548 42.9146 22.8728 42.874 22.8907 42.838C22.9266 42.7703 22.9266 42.7703 22.8907 42.838C22.7921 42.8966 22.6934 42.9552 22.5948 43.0138C22.6082 43.0093 22.6262 43.0003 22.6396 42.9958C22.5185 42.9958 22.402 42.9958 22.2809 42.9958C22.2585 42.9867 22.2316 42.9732 22.2091 42.9642C22.1284 42.8831 22.0477 42.8019 21.967 42.7208C21.8998 42.608 21.9625 42.7027 21.9894 42.7794C22.0119 42.8515 22.0388 42.9191 22.0612 42.9913C22.1105 43.131 22.1598 43.2753 22.2047 43.415C22.3212 43.7622 22.6665 43.9876 23.0342 43.8884C23.366 43.7982 23.6216 43.4015 23.505 43.0544C23.3122 42.4953 23.1508 41.5756 22.3706 41.6793C21.7652 41.7605 21.5635 42.4998 21.3393 42.9777C21.7473 43.0318 22.1598 43.0859 22.5679 43.14C22.4827 42.874 22.4423 42.6576 22.4378 42.3962C22.4333 42.0445 22.1329 41.7019 21.7652 41.7199C21.411 41.7379 21.0971 42.022 21.1016 42.4007Z" fill="#727272"/>
        <path d="M27.2803 43.2211C27.2444 43.5277 27.2085 43.8388 27.1727 44.1453C27.1368 44.4339 27.4058 44.7269 27.6659 44.799C27.9708 44.8847 28.2533 44.7359 28.4237 44.488C28.5448 44.3121 28.6658 44.1408 28.7869 43.965C28.8407 43.8838 28.899 43.8072 28.9528 43.7261C28.9752 43.6945 28.9976 43.6629 29.02 43.6314C29.1187 43.4961 29.1052 43.5051 28.9842 43.6584C28.8721 43.69 28.76 43.7215 28.6434 43.7486C28.6658 43.7486 28.6838 43.7486 28.7062 43.7486C28.5941 43.717 28.482 43.6855 28.3654 43.6584C28.2309 43.424 28.186 43.3789 28.2309 43.5232C28.2443 43.5773 28.2533 43.6359 28.2667 43.69C28.2892 43.8027 28.3116 43.9109 28.3385 44.0236C28.3878 44.258 28.4102 44.533 28.5313 44.7449C28.6479 44.9433 28.8407 45.1146 29.0649 45.1777C29.4102 45.2724 29.6926 45.0966 29.8944 44.8261C30.1141 44.533 29.9393 44.0687 29.6523 43.9019C29.307 43.699 28.9528 43.8523 28.7331 44.1453C28.7241 44.1589 28.7151 44.1724 28.7062 44.1814C28.899 44.0687 29.0918 43.956 29.2891 43.8478C29.2756 43.8478 29.2622 43.8523 29.2487 43.8523C29.3608 43.8838 29.4729 43.9154 29.5895 43.9425C29.7061 44.0011 29.7778 44.3302 29.7106 43.9966C29.6926 43.9019 29.6702 43.8117 29.6523 43.717C29.6164 43.5502 29.585 43.3834 29.5492 43.2166C29.4684 42.865 29.2577 42.5223 28.89 42.4186C28.482 42.3059 28.1591 42.5404 27.9305 42.8469C27.7018 43.158 27.4865 43.4781 27.2668 43.7937C27.6838 43.9064 28.1008 44.0191 28.5223 44.1363C28.5582 43.8297 28.5941 43.5187 28.6299 43.2121C28.6703 42.8469 28.2892 42.5359 27.9574 42.5359C27.5583 42.5449 27.3251 42.8605 27.2803 43.2211Z" fill="#727272"/>
        <path d="M27.926 30.8729C27.7601 31.5942 27.6794 32.3336 27.6929 33.073C27.7018 33.7086 28.6345 34.0377 28.9484 33.4156C29.0829 33.1451 29.2174 32.8791 29.3519 32.6086C29.4506 32.4102 29.5223 32.1623 29.7017 32.0225C29.603 32.0811 29.5044 32.1397 29.4057 32.1984C29.4057 32.1938 29.4057 32.1893 29.4102 32.1848C29.195 32.018 28.9797 31.8557 28.76 31.6889C28.8452 32.009 28.9304 32.3291 29.0156 32.6492C29.1232 33.0504 29.6389 33.2939 30.0021 33.0549C30.0649 33.0144 30.1276 32.9693 30.1904 32.9287C30.9078 32.4508 30.2352 31.2787 29.5133 31.761C29.4506 31.8016 29.3878 31.8467 29.325 31.8873C29.6523 32.0225 29.9841 32.1578 30.3115 32.293C30.2263 31.9729 30.1411 31.6528 30.0559 31.3328C29.9797 31.0487 29.7017 30.8323 29.4057 30.8368C28.4596 30.8549 28.1368 32.0361 27.787 32.7394C28.204 32.8521 28.621 32.9648 29.0425 33.082C29.0335 32.4553 29.0874 31.8512 29.2264 31.2381C29.4147 30.386 28.1188 30.0253 27.926 30.8729Z" fill="#727272"/>
        <path d="M26.6434 20.7562C26.6748 21.2881 26.7017 21.8156 26.7331 22.3476C26.769 23.0148 27.6209 23.2718 27.9886 22.6902C28.2487 22.2755 28.5087 21.8652 28.7688 21.4504C28.3832 21.4504 27.9931 21.4504 27.6075 21.4504C27.7016 21.6127 27.7599 21.7615 27.7689 21.9509C27.8003 22.546 28.4773 22.83 28.9168 22.4287C29.2576 22.1222 29.4773 21.7525 29.6432 21.3242C29.3158 21.4595 28.984 21.5947 28.6567 21.73C28.6567 21.739 28.6567 21.748 28.6522 21.7525C28.5939 21.6533 28.5356 21.5541 28.4773 21.455C28.4908 21.482 28.4998 21.5136 28.5132 21.5406C28.6522 21.8787 28.9571 22.1177 29.3427 22.014C29.6566 21.9283 29.9526 21.5226 29.8136 21.1799C29.697 20.9049 29.5759 20.7381 29.3338 20.5578C28.9526 20.2738 28.4863 20.5984 28.3473 20.9635C28.2666 21.1709 28.1276 21.3242 27.9662 21.473C28.3473 21.6308 28.7329 21.7931 29.1141 21.9509C29.0916 21.5271 28.984 21.1349 28.7688 20.7697C28.5043 20.3234 27.8765 20.3414 27.6075 20.7697C27.3474 21.1845 27.0873 21.5947 26.8273 22.0095C27.2443 22.1222 27.6613 22.2349 28.0828 22.3521C28.0514 21.8201 28.0245 21.2927 27.9931 20.7607C27.9393 19.8906 26.5941 19.8861 26.6434 20.7562Z" fill="#727272"/>
        <path d="M27.0067 11.8163C26.9663 12.1589 26.9484 12.5016 26.9573 12.8442C26.9708 13.3131 27.5358 13.7459 27.9707 13.4303C28.1949 13.268 28.3339 13.0831 28.4101 12.8171C28.4281 12.754 28.446 12.6819 28.455 12.6188C28.4639 12.5602 28.4998 12.5557 28.4505 12.6007C28.2173 12.8171 27.9707 13.1282 27.5985 12.6774C27.6389 12.727 27.6254 12.7225 27.5985 12.6639C27.6299 12.7315 27.6524 12.8081 27.6837 12.8757C27.7375 12.993 27.8183 13.0967 27.9079 13.1868C28.1859 13.4618 28.5985 13.5159 28.9348 13.3221C29.2531 13.1417 29.3562 12.7089 29.1769 12.3979C28.9886 12.0778 28.576 11.9741 28.2577 12.1544C28.2442 12.1634 28.2263 12.1725 28.2128 12.1815C28.3249 12.1499 28.437 12.1184 28.5536 12.0913C28.5895 12.0868 28.9123 12.2671 28.8854 12.2761C28.9034 12.3122 28.9034 12.3122 28.8899 12.2807C28.8765 12.2446 28.863 12.2085 28.8451 12.1725C28.7913 12.0417 28.7285 11.92 28.6299 11.8118C28.4101 11.5819 28.0694 11.4692 27.76 11.5683C27.4685 11.6585 27.2757 11.8929 27.1815 12.177C27.1591 12.2401 27.1502 12.3032 27.1322 12.3708C27.1232 12.4024 27.1143 12.4294 27.1098 12.461C27.0919 12.5196 27.0919 12.5196 27.1143 12.461C27.1412 12.3753 27.1995 12.3077 27.2892 12.2626C27.6254 12.4565 27.9617 12.6503 28.3025 12.8487C28.2936 12.5061 28.3115 12.1634 28.3518 11.8208C28.3967 11.4692 28.0111 11.131 27.6793 11.1446C27.2802 11.1626 27.056 11.4421 27.0067 11.8163Z" fill="#727272"/>
        <path d="M26.5945 4.88242C26.469 5.37834 26.5317 5.88778 26.7963 6.32508C27.1102 6.85707 27.8321 6.69477 28.0249 6.16279C28.0966 5.96442 27.989 6.28451 28.0563 6.08164C28.0832 6.00499 28.1056 6.04106 28.0383 6.07262C27.8321 6.18082 27.5541 6.10869 27.4913 5.83819C27.5765 6.19434 27.9756 6.40623 28.3208 6.31156C28.6795 6.21238 28.8768 5.83819 28.7916 5.47752C28.6706 4.96357 28.1146 4.68857 27.6169 4.80578C27.1281 4.92751 26.8905 5.3558 26.729 5.79761C27.1371 5.74351 27.5496 5.68941 27.9576 5.63531C27.8904 5.5181 27.8814 5.52711 27.868 5.38736C27.8769 5.45949 27.8724 5.36932 27.8724 5.34678C27.8814 5.14841 27.8455 5.42793 27.8904 5.23407C27.9756 4.89144 27.7783 4.48569 27.4196 4.40004C27.0743 4.3279 26.6887 4.51274 26.5945 4.88242Z" fill="#727272"/>
        <path d="M7.36734 3.28655C7.17004 3.54803 6.99068 3.82303 6.83375 4.11157C6.56919 4.58494 7.01759 5.3243 7.59153 5.10339C7.79779 5.02675 7.99957 4.9456 8.20583 4.86896C7.93231 4.71117 7.65431 4.55338 7.3763 4.39559C7.41218 4.49928 7.43011 4.56691 7.42563 4.6706C7.42114 5.01323 7.7395 5.3784 8.09822 5.34684C8.43451 5.31979 8.72149 5.23864 9.02191 5.09438C9.34924 4.93659 9.43443 4.46321 9.26404 4.17017C9.06675 3.83205 8.67216 3.76894 8.34483 3.92673C8.27758 3.95828 8.15202 3.98984 8.09822 3.99435C8.32241 4.21977 8.54661 4.44518 8.77081 4.6706C8.77529 4.4542 8.74391 4.2378 8.67216 4.03493C8.56006 3.71484 8.20583 3.4263 7.84263 3.56155C7.63637 3.63819 7.4346 3.71934 7.22833 3.79599C7.47943 4.12509 7.73502 4.45871 7.98612 4.78781C8.14754 4.49928 8.32241 4.22427 8.51971 3.96279C8.73942 3.66975 8.56455 3.2054 8.27758 3.03859C7.94128 2.84473 7.58705 2.99351 7.36734 3.28655Z" fill="#727272"/>
        <path d="M3.56047 10.8786C3.30489 11.4421 3.08518 12.0192 2.90582 12.6143C2.79372 12.984 3.04034 13.3266 3.37663 13.4483C3.66361 13.552 3.973 13.4889 4.2241 13.3266C4.33171 13.2544 4.40346 13.1823 4.48417 13.0876C4.79356 12.718 4.36758 13.1958 4.11648 12.8848C4.05819 12.7856 3.9999 12.6864 3.94161 12.5872C3.90574 12.461 3.93264 12.7225 3.93264 12.718C3.94609 12.8217 3.973 12.9299 4.0268 13.0245C4.12994 13.2003 4.31826 13.3446 4.51107 13.3987C4.87427 13.4979 5.3406 13.3581 5.49754 12.9885C5.64102 12.6548 5.59618 12.2626 5.2554 12.0643C4.97292 11.8974 4.47968 11.9696 4.3362 12.3077C4.34965 12.2897 4.3631 12.2716 4.38104 12.2581C4.47968 12.1995 4.57833 12.1409 4.67698 12.0823C4.81149 12.1229 4.94601 12.1634 5.08053 12.204C5.13882 12.3032 5.19711 12.4024 5.2554 12.5016C5.29128 12.6278 5.26437 12.3167 5.2554 12.2852C5.21953 12.1499 5.15676 12.0282 5.06708 11.929C4.90117 11.7532 4.68594 11.6495 4.44381 11.636C4.2241 11.6269 4.02232 11.6901 3.84296 11.8163C3.75777 11.8749 3.68603 11.9425 3.61877 12.0237C3.34076 12.3483 3.53357 12.0733 3.73983 12.1454C3.89677 12.4249 4.05371 12.6999 4.21065 12.9794C4.35413 12.4971 4.52452 12.0282 4.73078 11.5683C4.87875 11.2347 4.82495 10.8425 4.48865 10.6441C4.19271 10.4683 3.70844 10.545 3.56047 10.8786Z" fill="#727272"/>
        <path d="M2.07185 18.8537C1.92837 19.6292 1.92837 20.382 2.08082 21.1575C2.15705 21.5407 2.56957 21.6849 2.91035 21.6308C3.10764 21.5993 3.29148 21.4866 3.43048 21.3378C3.48878 21.2747 3.54258 21.1981 3.59191 21.1259C3.61881 21.0853 3.64123 21.0448 3.66365 20.9997C3.704 20.9366 3.69055 20.9411 3.61433 21.0042C3.49326 21.0042 3.37668 21.0042 3.25561 21.0042C3.287 21.0132 3.31839 21.0222 3.34977 21.0312C3.25113 20.9726 3.15248 20.914 3.05383 20.8554C3.00451 20.7517 3.00003 20.7562 3.04487 20.8689C3.06729 20.923 3.08971 20.9771 3.11212 21.0312C3.18387 21.1665 3.28251 21.2747 3.40806 21.3558C3.70849 21.5587 3.98201 21.5452 4.30485 21.3964C4.63666 21.2476 4.71737 20.7607 4.54699 20.4722C4.34969 20.1296 3.95959 20.08 3.62778 20.2288C3.60536 20.2378 3.57845 20.2513 3.55603 20.2603C3.73091 20.2378 3.9013 20.2152 4.07617 20.1927C4.04927 20.1837 4.02236 20.1792 3.99546 20.1702C4.09411 20.2288 4.19275 20.2874 4.2914 20.346C4.3183 20.4361 4.3183 20.4452 4.29588 20.3775C4.27346 20.3054 4.24656 20.2378 4.21517 20.1747C4.17482 20.098 4.12998 20.0214 4.0672 19.9583C3.87888 19.7554 3.61881 19.6607 3.34529 19.6878C3.10764 19.7103 2.8969 19.8275 2.73099 19.9988C2.65028 20.08 2.58302 20.1747 2.52473 20.2738C2.51128 20.3009 2.49334 20.3279 2.47989 20.355C2.39469 20.4812 2.41711 20.4677 2.55163 20.3189C2.82515 20.4767 3.10316 20.6345 3.38116 20.7923C3.27803 20.2693 3.27355 19.7328 3.37219 19.2099C3.43945 18.8492 3.27355 18.4795 2.90138 18.3758C2.56957 18.2902 2.13911 18.4931 2.07185 18.8537Z" fill="#727272"/>
        <path d="M3.03145 28.6142C3.21978 28.9929 3.40362 29.3716 3.59194 29.7503C3.75785 30.0839 4.21073 30.1606 4.51115 29.9938C4.75328 29.8585 4.91919 29.6421 4.99542 29.3716C5.03129 29.2499 5.05371 29.0966 5.04026 28.9704C5.0268 28.8261 5.08958 28.8667 5.01335 28.9343C4.91471 28.9929 4.81606 29.0515 4.71741 29.1101C4.70845 29.1146 4.69948 29.1146 4.69051 29.1192C4.57841 29.0876 4.46631 29.056 4.34973 29.029C4.58289 29.1642 4.69499 29.3806 5.03577 29.3806C5.43933 29.3806 5.52901 29.1417 5.77114 28.9028C5.67249 28.9614 5.57385 29.02 5.4752 29.0786C5.34516 28.9974 5.21513 28.9163 5.0851 28.8306C5.1389 29.1913 5.59178 29.3897 5.91462 29.304C6.30024 29.1958 6.43925 28.8351 6.38544 28.47C6.32266 28.0642 5.94153 27.7622 5.54694 27.7216C5.0851 27.6765 4.78467 27.929 4.56496 28.3077C4.64567 28.2265 4.72638 28.1454 4.80709 28.0642C4.78467 28.0822 4.75777 28.1003 4.73535 28.1183C4.84745 28.0868 4.95955 28.0552 5.07613 28.0281C5.05371 28.0281 5.0268 28.0281 5.00438 28.0281C5.11648 28.0597 5.22858 28.0913 5.34516 28.1183C5.26445 28.0732 5.05371 27.8433 4.87435 27.7937C4.61877 27.7216 4.34973 27.7757 4.13898 27.9335C3.95066 28.0732 3.82063 28.2806 3.75337 28.5015C3.70853 28.6413 3.75785 28.9253 3.68611 29.0245C3.76682 28.9433 3.84753 28.8622 3.92824 28.781C3.90134 28.7946 3.87443 28.8126 3.84304 28.8261C4.14795 28.9073 4.45734 28.9884 4.76225 29.0696C4.57393 28.6909 4.39009 28.3122 4.20176 27.9335C3.80717 27.149 2.64583 27.8343 3.03145 28.6142Z" fill="#727272"/>
        <path d="M7.18323 38.6587C7.16081 39.2403 7.76165 39.5694 8.26834 39.4116C8.51047 39.335 8.68535 39.1637 8.80193 38.9473C8.81986 38.9112 8.8378 38.8706 8.85574 38.8346C8.95438 38.6768 8.85574 38.7219 8.55083 38.9788C8.41183 38.9608 8.4746 38.9608 8.57325 39.0149C8.89161 39.1907 9.30861 39.0915 9.49246 38.7715C9.67181 38.4604 9.56868 38.0231 9.25032 37.8472C8.91851 37.6624 8.54186 37.5542 8.17418 37.7075C7.98585 37.7886 7.82891 37.9239 7.7213 38.1042C7.68991 38.1538 7.65852 38.2124 7.64059 38.271C7.63162 38.2891 7.62265 38.3071 7.61368 38.3251C7.84685 38.0636 8.08898 38.0411 8.34457 38.2575C8.40286 38.3567 8.46115 38.4559 8.51944 38.5551C8.52392 38.5911 8.52841 38.6272 8.53289 38.6633C8.54634 38.3071 8.21453 37.969 7.8603 37.987C7.47917 38.0005 7.19668 38.28 7.18323 38.6587Z" fill="#727272"/>
        <path d="M32.0376 5.15751C32.1183 5.56325 32.2573 5.94195 32.4322 6.31614C32.5981 6.66328 33.051 6.70837 33.3514 6.55959C33.5218 6.47393 33.6608 6.32065 33.7505 6.15384C33.7774 6.10425 33.7953 6.05015 33.8222 5.99605C33.9657 5.68498 33.8177 6.15384 33.4725 6.11778C33.3604 6.08622 33.2483 6.05466 33.1317 6.02761C33.0555 5.99154 33.2438 6.11327 33.2438 6.11327C33.3155 6.16737 33.3649 6.19893 33.4501 6.23499C33.6249 6.31163 33.8043 6.32516 33.9926 6.29811C34.3962 6.23049 34.6338 5.969 34.7863 5.60383C34.9253 5.26571 34.6338 4.85996 34.3155 4.76979C33.9298 4.66159 33.6294 4.90504 33.4859 5.24316C33.6429 4.95012 33.8402 4.88701 34.0733 5.05382C34.0554 5.03578 34.0374 5.01775 34.015 5.00422C33.9298 4.91857 33.7684 4.8284 33.6518 4.79684C33.4366 4.73823 33.2034 4.7743 33.0151 4.88701C32.8582 4.98168 32.7461 5.13046 32.6698 5.29276C32.6519 5.33333 32.6295 5.37841 32.6116 5.4235C32.5622 5.56776 32.5891 5.43251 32.6698 5.39645C32.9748 5.4776 33.2841 5.55875 33.5891 5.6399C33.4635 5.37391 33.3873 5.09439 33.329 4.80586C33.2617 4.44519 32.8313 4.24232 32.4995 4.33249C32.1363 4.42716 31.9704 4.79684 32.0376 5.15751Z" fill="#727272"/>
        <path d="M33.5982 12.8982C33.6834 13.3265 33.773 13.7548 33.8582 14.1831C34.0017 14.8909 34.9478 14.7602 35.1541 14.1831C35.2214 13.9892 35.3379 13.863 35.4859 13.7278C35.1317 13.6827 34.7819 13.6376 34.4277 13.5925C34.5443 13.863 34.6653 14.138 34.7819 14.4085C34.9164 14.7196 35.4366 14.8548 35.7011 14.652C35.8626 14.5302 35.9926 14.422 36.0957 14.2417C36.1316 14.1786 36.1719 14.1019 36.1944 14.0298C36.2033 13.9983 36.2168 13.9667 36.2347 13.9397C36.3423 13.7413 36.1361 13.6782 35.6115 13.7503C35.5621 14.111 35.9567 14.4265 36.284 14.4265C36.6876 14.4265 36.9073 14.1155 36.9566 13.7503C37.0329 13.1868 36.5082 12.6773 35.9657 12.6773C35.6922 12.6773 35.4455 12.799 35.2617 12.9929C35.1765 13.0831 35.1182 13.1823 35.0599 13.2905C35.0241 13.3626 34.8851 13.588 35.0241 13.4843C35.329 13.5655 35.6384 13.6466 35.9433 13.7278C35.8267 13.4573 35.7056 13.1823 35.589 12.9118C35.4052 12.488 34.8178 12.515 34.5308 12.7765C34.208 13.0695 34.0017 13.4212 33.8538 13.8269C34.2842 13.8269 34.7192 13.8269 35.1496 13.8269C35.0644 13.3987 34.9747 12.9704 34.8895 12.5421C34.7236 11.6855 33.4233 12.0462 33.5982 12.8982Z" fill="#727272"/>
        <path d="M34.7774 23.2403C34.737 23.5784 34.7774 23.9256 34.8671 24.2502C34.9792 24.6424 35.4903 24.9084 35.8535 24.6559C36.0912 24.4891 36.2347 24.3088 36.3378 24.0383C36.3647 23.9707 36.3871 23.8985 36.4095 23.8264C36.4499 23.6821 36.4095 23.876 36.293 23.894C36.1719 23.894 36.0553 23.894 35.9342 23.894C35.8221 23.8489 35.7504 23.7813 35.7325 23.6821C35.719 23.6371 35.7235 23.6506 35.7504 23.7227C35.7639 23.7633 35.7773 23.8084 35.7908 23.8489C35.867 24.0563 35.9746 24.2231 36.145 24.3629C36.5127 24.6604 36.9297 24.6109 37.2884 24.3313C37.5754 24.1059 37.5216 23.61 37.2884 23.3756C37.0059 23.0915 36.6248 23.1502 36.3378 23.3756C36.3243 23.3891 36.3064 23.3981 36.293 23.4116C36.3916 23.353 36.4902 23.2944 36.5889 23.2358C36.571 23.2403 36.553 23.2448 36.5351 23.2493C36.6562 23.2493 36.7727 23.2493 36.8938 23.2493C36.9745 23.2629 37.0911 23.5108 37.0418 23.362C37.0059 23.2448 36.9611 23.1231 36.8983 23.0194C36.71 22.7129 36.3781 22.537 36.0239 22.5731C35.71 22.6047 35.4545 22.803 35.2841 23.0645C35.2123 23.1772 35.163 23.3034 35.1226 23.4297C35.1092 23.4702 35.0823 23.5289 35.0778 23.5694C35.0733 23.628 35.0644 23.5559 35.1765 23.4793C35.5038 23.6145 35.8356 23.7498 36.1629 23.885C36.1001 23.6641 36.0912 23.4657 36.1181 23.2358C36.1584 22.8706 35.7773 22.5596 35.4455 22.5596C35.0554 22.5641 34.8222 22.8752 34.7774 23.2403Z" fill="#727272"/>
        <path d="M34.4053 31.202C34.3694 31.6438 34.4053 32.0766 34.4725 32.5139C34.5532 33.0234 35.2752 33.1541 35.598 32.8115C35.7146 32.6898 35.8356 32.568 35.9612 32.4553C36.0733 32.3561 36.1899 32.257 36.2796 32.1938C35.9522 32.0586 35.6204 31.9233 35.2931 31.7881C35.3334 31.9053 35.3334 31.7701 35.32 31.8963C35.329 31.8016 35.2662 31.9819 35.311 31.9053C35.1362 32.2254 35.2348 32.6447 35.5532 32.8295C35.8626 33.0098 36.2975 32.9107 36.4724 32.5861C36.6652 32.2299 36.728 31.8151 36.5934 31.4274C36.4634 31.0577 35.9791 30.7467 35.607 31.0217C35.2662 31.2741 34.9478 31.5446 34.6564 31.8512C35.033 31.9504 35.4052 32.0496 35.7818 32.1488C35.737 31.8557 35.737 31.5131 35.7594 31.193C35.7863 30.8413 35.4321 30.5032 35.0868 30.5168C34.6922 30.5438 34.4367 30.8233 34.4053 31.202Z" fill="#727272"/>
        <path d="M33.9748 40.0338C33.7327 40.4441 33.5489 40.8949 33.4457 41.3637C33.365 41.7199 33.5534 42.0941 33.9165 42.1978C34.2932 42.3015 34.616 42.0716 34.7461 41.7244C34.7864 41.6117 34.9209 41.3683 34.9927 41.2736C34.6743 41.2736 34.3605 41.2736 34.0421 41.2736C33.9614 41.1744 33.939 41.0662 33.9704 40.94C33.9121 41.3006 34.0645 41.6658 34.4412 41.774C34.764 41.8642 35.2079 41.6658 35.2707 41.3006C35.3335 40.9264 35.2662 40.5973 34.9972 40.3178C34.764 40.0744 34.2708 40.0338 34.0466 40.3178C33.7865 40.6424 33.5982 40.9715 33.4502 41.3637C33.8807 41.4855 34.3156 41.6027 34.7461 41.7244C34.8313 41.3457 34.9434 41.0482 35.1407 40.7191C35.3245 40.4035 35.2124 39.9752 34.8985 39.7949C34.5802 39.6055 34.1632 39.7182 33.9748 40.0338Z" fill="#727272"/>
        <path d="M38.8984 42.7343C38.6204 43.0995 38.4904 43.5504 38.4679 44.0057C38.4545 44.2717 38.6473 44.5287 38.8805 44.6233C39.145 44.7315 39.4006 44.6684 39.6158 44.4836C39.9476 44.1995 40.2795 43.911 40.6113 43.627C40.257 43.5819 39.9073 43.5368 39.5531 43.4917C39.5262 43.4512 39.5396 43.3926 39.5441 43.3475C39.5486 43.3159 39.6203 43.2077 39.5486 43.3204C39.3558 43.6315 39.4813 44.0643 39.7907 44.2446C40.1136 44.434 40.5171 44.3123 40.7099 44.0012C40.9386 43.636 40.9341 43.1717 40.7144 42.802C40.4768 42.4052 39.988 42.3827 39.6562 42.6667C39.3244 42.9507 38.9926 43.2393 38.6608 43.5233C39.0419 43.6811 39.4275 43.8434 39.8086 44.0012C39.8176 43.7983 39.7728 44.0913 39.8176 43.8975C39.8356 43.8299 39.8535 43.7577 39.8759 43.6901C39.84 43.7848 39.9297 43.5954 39.9297 43.5909C39.9656 43.5278 40.0059 43.4692 40.0508 43.4151C40.2705 43.1221 40.0956 42.6577 39.8086 42.4909C39.4724 42.288 39.1226 42.4413 38.8984 42.7343Z" fill="#727272"/>
        <path d="M41.3825 33.88C41.2883 34.3939 41.2345 34.9124 41.23 35.4398C41.2211 36.1025 42.1582 36.373 42.4855 35.7825C42.6873 35.4128 42.925 35.0927 43.2209 34.7951C42.9474 34.8312 42.6784 34.8673 42.4048 34.8988C42.3914 34.8898 42.3735 34.8763 42.36 34.8673C42.3017 34.7681 42.2434 34.6689 42.1851 34.5697C42.1717 34.5292 42.2165 34.4029 42.1717 34.5472C42.1403 34.6373 42.1224 34.7816 42.1179 34.8673C42.1089 35.0837 42.1717 35.2956 42.2972 35.4714C42.4407 35.6652 42.6784 35.796 42.925 35.796C43.0595 35.796 43.2164 35.7554 43.333 35.6923C43.3554 35.6788 43.3734 35.6698 43.3958 35.6562C43.5034 35.5886 43.472 35.5841 43.3016 35.6427C43.1895 35.6111 43.0774 35.5796 42.9608 35.5525C42.7815 35.4624 42.768 35.3587 42.786 35.2279C42.7366 35.5886 42.8757 35.9538 43.2568 36.062C43.5707 36.1476 44.0325 35.9538 44.0863 35.5886C44.1401 35.2009 44.1222 34.8087 43.8262 34.5156C43.6783 34.3714 43.4541 34.2857 43.2478 34.2902C43.1133 34.2947 42.9564 34.3398 42.8398 34.4029C42.8084 34.421 42.6604 34.4841 42.7456 34.466C42.8667 34.466 42.9833 34.466 43.1043 34.466C43.0864 34.4615 43.064 34.4525 43.046 34.448C43.1447 34.5066 43.2433 34.5652 43.342 34.6238C43.3868 34.998 43.4272 35.0927 43.4675 34.9078C43.4855 34.8628 43.4944 34.8177 43.5034 34.7681C43.5258 34.6644 43.5348 34.5562 43.5258 34.448C43.5079 34.1505 43.3554 33.8664 43.0819 33.7357C42.8129 33.6004 42.49 33.6185 42.2658 33.8394C41.8937 34.2136 41.5753 34.6373 41.3197 35.0972C41.7367 35.2099 42.1537 35.3226 42.5752 35.4398C42.5797 35.0386 42.6111 34.6373 42.6828 34.2406C42.7456 33.88 42.5842 33.5103 42.212 33.4066C41.8802 33.3164 41.4453 33.5193 41.3825 33.88Z" fill="#727272"/>
        <path d="M42.288 24.5703C42.0952 25.0346 42.0907 25.5621 42.2387 26.04C42.445 26.6982 43.3148 26.6667 43.5346 26.04C43.6467 25.7154 43.8484 25.4584 44.104 25.233C43.7229 25.0752 43.3373 24.9129 42.9561 24.7551C42.9696 24.9851 42.9875 25.215 43.001 25.4404C43.0279 25.8371 43.2879 26.0716 43.6736 26.1166C43.8888 26.1437 44.0861 26.0716 44.2654 25.9543C44.3417 25.9047 44.4089 25.8461 44.4672 25.7785C44.4896 25.747 44.5165 25.7199 44.539 25.6929C44.6197 25.6072 44.5524 25.6252 44.3327 25.747C44.2206 25.7154 44.1085 25.6838 43.9919 25.6568C43.956 25.6162 43.9157 25.5756 43.8798 25.5351C43.8484 25.4224 43.817 25.3097 43.7901 25.1924C43.7901 25.2105 43.7901 25.2285 43.7946 25.2465C43.826 25.1338 43.8574 25.0211 43.8843 24.9039C43.8753 24.9174 43.8664 24.9355 43.8574 24.949C43.4 25.6929 44.5659 26.3736 45.0187 25.6297C45.2878 25.1924 45.0636 24.6244 44.5928 24.4531C44.3461 24.3629 44.095 24.3809 43.8664 24.5072C43.7722 24.5568 43.6915 24.6289 43.6153 24.7055C43.5973 24.7236 43.5839 24.7461 43.5659 24.7641C43.4763 24.8543 43.5121 24.8543 43.6736 24.7641C43.8978 24.9896 44.122 25.215 44.3461 25.4404C44.3327 25.2105 44.3148 24.9805 44.3013 24.7551C44.261 24.1555 43.6018 23.8805 43.1534 24.2772C42.723 24.6605 42.427 25.1383 42.2387 25.6793C42.6692 25.6793 43.1041 25.6793 43.5346 25.6793C43.4494 25.4043 43.4763 25.1924 43.5839 24.931C43.7229 24.5928 43.4314 24.1871 43.1131 24.0969C42.7274 23.9887 42.427 24.2322 42.288 24.5703Z" fill="#727272"/>
        <path d="M41.7275 12.7179C41.7634 13.0966 41.8037 13.4798 41.8396 13.8585C41.871 14.1921 42.0683 14.4806 42.4225 14.5212C42.7454 14.5618 43.0772 14.3679 43.1624 14.0388C43.2341 13.7503 43.3328 13.4888 43.4762 13.2318C43.0906 13.2318 42.7005 13.2318 42.3149 13.2318C42.3822 13.3581 42.4494 13.4843 42.5122 13.606C42.7588 14.0704 43.4135 14.0163 43.6735 13.606C43.696 13.5699 43.7273 13.5384 43.7273 13.5249C43.7991 13.4617 43.7498 13.4663 43.5883 13.5384C43.5166 13.579 43.4449 13.588 43.3731 13.5745C43.2924 13.4933 43.2117 13.4122 43.131 13.331C43.1265 13.313 43.122 13.2949 43.1175 13.2769C43.3776 14.1019 44.6779 13.7503 44.4134 12.9162C44.2789 12.4925 43.9112 12.2265 43.4628 12.24C43.0278 12.2535 42.7229 12.5781 42.5077 12.9207C42.8933 12.9207 43.2834 12.9207 43.6691 12.9207C43.6018 12.7945 43.5345 12.6683 43.4718 12.5466C43.2386 12.1047 42.5481 12.1093 42.3104 12.5466C42.1176 12.9027 41.9652 13.2814 41.862 13.6781C42.3014 13.7368 42.7409 13.7999 43.1848 13.8585C43.1489 13.4798 43.1086 13.0966 43.0727 12.7179C43.0368 12.3527 42.7902 12.0416 42.4001 12.0416C42.0638 12.0416 41.6916 12.3527 41.7275 12.7179Z" fill="#727272"/>
        <path d="M38.3962 5.15745C38.5666 5.59025 38.7773 5.95091 39.0733 6.31158C39.414 6.72634 40.0553 6.45585 40.1987 6.01403C40.3019 5.68943 40.3467 5.33778 40.3153 4.99966C39.8983 5.11237 39.4813 5.22508 39.0598 5.34229C39.1899 5.59476 39.3737 5.82468 39.5934 6.00501C39.8759 6.23494 40.2705 6.28002 40.544 6.00501C40.7817 5.76607 40.8265 5.27918 40.544 5.04925C40.4633 4.98614 40.3871 4.914 40.3243 4.83736C40.257 4.7517 40.3646 4.90499 40.3064 4.81031C40.275 4.76072 40.2481 4.71113 40.2212 4.66154C40.0822 4.39104 39.7369 4.26931 39.4589 4.34596C39.1943 4.41809 38.9388 4.70662 38.9657 4.99966C38.9926 5.28368 38.9836 5.39639 38.8984 5.65337C39.275 5.55418 39.6472 5.455 40.0239 5.35582C39.9656 5.28819 39.9073 5.20253 39.84 5.08532C39.8086 5.03122 39.7772 4.97261 39.7459 4.91851C39.7369 4.90499 39.6652 4.73367 39.6876 4.80129C39.5531 4.46317 39.2392 4.22423 38.858 4.32792C38.5442 4.41358 38.2617 4.81482 38.3962 5.15745Z" fill="#727272"/>
        <path d="M45.189 4.63449C45.2428 4.91852 45.3504 5.19352 45.4984 5.44599C45.6509 5.70296 45.9692 5.83821 46.2562 5.75706C46.5611 5.6714 46.7225 5.40541 46.7494 5.10336C46.7808 4.78777 46.8122 4.46768 46.8436 4.1521C46.5073 4.34596 46.171 4.53982 45.8302 4.73818C46.0365 4.89147 46.2427 5.04926 46.449 5.20254C46.7405 5.41894 47.2023 5.25213 47.3682 4.95909C47.57 4.61646 47.4175 4.25129 47.1261 4.03489C46.9198 3.8816 46.7136 3.72381 46.5073 3.57053C46.319 3.43077 46.0185 3.45782 45.8302 3.57053C45.6105 3.70127 45.5208 3.90865 45.4984 4.15661C45.467 4.47219 45.4356 4.79228 45.4042 5.10786C45.8213 4.99516 46.2383 4.88245 46.6597 4.76523C46.5521 4.5849 46.5252 4.49924 46.4849 4.27834C46.4176 3.91767 45.9872 3.7148 45.6553 3.80496C45.2877 3.90415 45.1262 4.27383 45.189 4.63449Z" fill="#727272"/>
        <path d="M48.1753 12.7494C48.2381 13.1236 48.3278 13.4843 48.4488 13.8449C48.5878 14.2732 49.0362 14.4536 49.4353 14.2507C49.6819 14.1245 49.8389 13.89 49.9016 13.624C49.933 13.5023 49.9375 13.3716 49.9465 13.2408C49.9465 13.1957 49.951 13.1507 49.9554 13.1056C49.9465 13.2949 49.8209 13.4167 49.5743 13.4798C49.4622 13.4482 49.3501 13.4167 49.2335 13.3896C49.7626 13.6511 50.1752 13.8269 50.7805 13.6917C51.6235 13.5023 51.2692 12.1949 50.4218 12.3888C50.211 12.4384 50.09 12.3121 49.9106 12.222C49.5967 12.0687 49.238 12.0912 48.9645 12.3076C48.7582 12.4699 48.6641 12.6953 48.6282 12.9523C48.6147 13.0515 48.6103 13.1462 48.6013 13.2453C48.5923 13.331 48.5968 13.3355 48.6058 13.2679C48.5609 13.4212 48.6103 13.358 48.7582 13.0875C49.0856 13.2228 49.4174 13.358 49.7447 13.4933C49.6281 13.1326 49.5384 12.772 49.4712 12.3978C49.4084 12.0371 48.969 11.8342 48.6417 11.9244C48.265 12.0191 48.1126 12.3888 48.1753 12.7494Z" fill="#727272"/>
        <path d="M49.7405 22.5325C49.6957 22.8752 49.6464 23.2178 49.6015 23.5604C49.5612 23.8625 49.6284 24.16 49.9109 24.3223C50.1441 24.4621 50.5477 24.4486 50.727 24.2186C50.8257 24.0879 50.9243 23.9797 51.0812 23.9256C50.7988 23.7092 50.5118 23.4928 50.2293 23.2719C50.2383 23.5424 50.2427 23.8129 50.2517 24.0834C50.2652 24.5342 50.6687 24.8408 51.1037 24.7371C51.3189 24.6875 51.4983 24.5793 51.6686 24.4441L51.8345 24.3133C51.8211 24.2953 51.6059 24.3088 51.5565 24.2547C51.4983 24.1555 51.44 24.0563 51.3817 23.9572C51.3906 23.9797 51.3951 24.0022 51.4041 24.0248C51.6866 24.8408 52.9869 24.4891 52.6999 23.6641C52.543 23.2178 52.1843 22.9653 51.709 22.9789C51.5162 22.9834 51.3144 23.0465 51.1485 23.1457C51.014 23.2268 50.8884 23.3936 50.736 23.4297C51.0185 23.6461 51.3054 23.8625 51.5879 24.0834C51.579 23.8129 51.5745 23.5424 51.5655 23.2719C51.5565 22.8571 51.1395 22.4739 50.7136 22.6182C50.3414 22.7489 50.0096 22.9473 49.7674 23.2629C50.1441 23.4838 50.5163 23.7002 50.8929 23.9211C50.9378 23.5785 50.9871 23.2358 51.0319 22.8932C51.0812 22.5325 50.9467 22.1674 50.5611 22.0592C50.2562 21.9735 49.7899 22.1674 49.7405 22.5325Z" fill="#727272"/>
        <path d="M47.8078 33.7311C47.7136 34.1144 47.6194 34.4976 47.5298 34.8808C47.4446 35.2324 47.6374 35.6201 48.0006 35.7148C48.3234 35.8005 48.6328 35.7373 48.8974 35.5255C49.1081 35.3541 49.1843 35.0881 49.3771 34.9213C49.2785 34.9799 49.1798 35.0386 49.0812 35.0972C49.1126 35.0836 49.144 35.0701 49.1798 35.0566C49.0588 35.0566 48.9422 35.0566 48.8211 35.0566C48.8525 35.0611 48.8839 35.0701 48.9198 35.0746C48.7853 34.9709 48.6507 34.8672 48.5162 34.7635C48.5072 34.7094 48.5117 34.723 48.5252 34.8131C48.5566 34.8898 48.588 34.9664 48.6238 35.0431C48.7135 35.1918 48.8525 35.2955 49.005 35.3632C49.1664 35.4353 49.3457 35.4443 49.5206 35.4082C49.5789 35.4037 49.6372 35.3857 49.691 35.3632C49.9556 35.2775 49.9018 35.2504 49.5296 35.2865C49.4489 35.2054 49.3682 35.1242 49.2875 35.0431C49.2964 35.0566 49.3099 35.0746 49.3188 35.0881C49.2875 34.9754 49.2561 34.8627 49.2292 34.7455C49.2292 34.7635 49.2292 34.7861 49.2247 34.8041C49.1843 35.6742 50.5295 35.6742 50.5699 34.8041C50.5878 34.4344 50.3367 34.1234 49.9914 34.0152C49.83 33.9656 49.6507 33.9611 49.4847 34.0016C49.4265 34.0152 49.1978 34.0603 49.265 34.0693C49.3771 34.1008 49.4892 34.1324 49.6058 34.1594C49.5834 34.1459 49.5655 34.1279 49.543 34.1143C49.6237 34.1955 49.7045 34.2766 49.7852 34.3578C49.7538 34.2947 49.682 34.0557 49.5699 33.9385C49.3906 33.7582 49.0633 33.677 48.8211 33.7447C48.6238 33.7988 48.4534 33.916 48.3189 34.0648C48.2472 34.1459 48.1844 34.2361 48.1306 34.3307C48.1127 34.3623 48.0992 34.3939 48.0813 34.4209C47.9557 34.5922 48.0499 34.5877 48.3638 34.4029C48.5207 34.6824 48.6776 34.9574 48.8346 35.2369C48.9287 34.8537 49.0229 34.4705 49.1126 34.0873C49.3099 33.2442 48.014 32.8836 47.8078 33.7311Z" fill="#727272"/>
        <path d="M46.382 41.8642C46.4807 41.9408 46.5793 42.0174 46.678 42.0941C46.9649 42.3195 47.4313 42.1392 47.5972 41.8506C47.7989 41.5035 47.6465 41.1473 47.355 40.9264C47.2564 40.8498 47.1577 40.7731 47.0591 40.6965C46.7721 40.4711 46.3058 40.6514 46.1399 40.94C45.9381 41.2871 46.095 41.6387 46.382 41.8642Z" fill="#727272"/>
        </g>
        <defs>
        <clipPath id="clip0_1_271">
        <rect width="55" height="48" fill="white"/>
        </clipPath>
        </defs>
</symbol>

<symbol id="animated-plant" width="61" height="46" viewBox="0 0 61 46" fill="none" xmlns="http://www.w3.org/2000/svg">
<g clip-path="url(#clip0_1_365)">
<path d="M19.2989 44.7375C19.858 40.1055 16.6249 36.6471 13.1799 33.9799C11.1733 32.424 9.21185 31.126 7.90419 28.8989C7.23683 27.7565 6.59653 26.4673 6.22227 25.2004C5.49178 22.7333 6.75435 18.857 9.8792 21.702C11.6784 23.3423 12.0932 25.4583 13.4685 27.2808C14.2441 28.3121 15.4345 28.8634 16.6745 28.2055C20.4036 26.2317 17.5177 19.386 16.6835 16.6654C15.6735 13.3715 15.1414 10.202 16.8414 7.03247C17.4005 5.99227 18.0273 4.92095 18.7442 3.98299C19.2087 3.37843 19.7994 2.72497 20.4622 2.30711C21.833 1.43584 22.6582 1.43584 24.1733 1.89815C25.7875 2.39158 25.8011 2.47604 26.1302 4.00522C26.2835 4.71202 26.3467 5.48995 26.3827 6.21898C26.4594 7.7615 26.3331 9.31736 26.013 10.8332C25.4133 13.7093 23.6863 16.252 23.3075 19.1726C23.0279 21.3197 23.2218 28.1432 26.8111 27.5031C31.0182 26.7518 30.7161 20.0928 34.9096 19.2037C38.3997 18.4613 40.1041 22.2443 38.6251 24.8404C37.8225 26.254 36.4878 27.3475 35.2027 28.3121C32.912 30.0325 30.1118 30.9304 27.8618 32.6685C23.79 35.8247 25.1427 40.7857 26.8156 44.8531C27.1403 45.6399 28.4479 45.2932 28.1188 44.4975C26.9915 41.7547 25.5756 38.3985 27.0997 35.518C28.5111 32.8508 32.2356 31.9173 34.639 30.3436C37.8856 28.2188 42.5436 24.218 39.793 20.0083C37.4933 16.4832 33.0383 17.6612 30.937 20.6129C30.3012 21.5064 29.8097 22.4888 29.2461 23.4268C28.989 23.8535 28.732 24.2847 28.4299 24.6848C28.2135 24.9426 27.997 25.196 27.7806 25.4538C26.0716 25.8272 25.1878 25.3782 25.1292 24.098C23.4157 20.5062 25.4899 16.8255 26.6533 13.5137C27.5191 11.051 27.8888 8.4283 27.7039 5.8278C27.5777 4.02745 27.3883 1.59142 25.6703 0.515657C24.1597 -0.431192 21.8375 0.111135 20.354 0.849055C18.1445 1.95149 16.7918 4.28972 15.6735 6.37012C12.8011 11.7134 15.7005 16.421 16.7692 21.8042C16.909 22.5199 17.2652 24.0891 17.0262 24.8848C16.2957 25.5427 15.5653 26.1962 14.8303 26.8541C14.4109 26.3251 14.0953 25.7472 13.8743 25.1115C13.4505 24.1825 13.0041 23.3156 12.3863 22.4888C11.4123 21.1819 9.57258 19.0348 7.69226 19.1415C5.86604 19.2482 4.79286 21.1508 4.59897 22.7377C4.31038 25.0848 5.58648 27.5876 6.74082 29.5791C9.94233 35.0957 18.866 37.1272 17.9461 44.7464C17.8469 45.5866 19.1996 45.5821 19.2989 44.7375Z" fill="#46A358"/>
<path d="M30.9866 22.5733C31.9606 17.7057 30.1209 13.2559 29.7376 8.45056C29.5076 5.57889 30.7477 0.986893 34.6887 2.29381C37.6241 3.26733 38.7379 6.71689 38.5395 9.47742C38.3952 11.4956 37.4122 17.4167 41.3532 16.8655C44.7351 16.3943 46.4801 10.8377 48.1215 8.48167C49.5283 6.46351 52.6351 3.51627 55.3677 4.33865C59.6965 5.64112 56.9234 10.7621 54.9303 12.7758C51.571 16.1676 47.9907 19.1682 45.0282 22.9467C43.3102 25.1382 41.8222 28.7389 45.6324 29.7213C47.0979 30.0992 48.5093 29.5969 49.8304 29.0012C50.8946 28.5211 51.9092 27.9477 53.041 27.632C55.1062 27.0541 57.5005 27.5076 56.1342 30.0369C52.9373 35.9625 45.6189 31.5928 40.8978 34.0777C36.8936 36.1892 35.9602 40.8568 36.339 44.9509C36.4157 45.8 37.7729 45.8089 37.6918 44.9509C37.4257 42.0971 37.6557 39.012 39.6578 36.7494C42.246 33.8243 45.7 34.8912 49.127 34.8245C52.6261 34.7579 57.1308 33.0864 57.8568 29.2323C58.6504 25.0093 53.7714 25.8272 51.2689 26.8452C50.1641 27.2942 49.1315 27.9921 47.9772 28.3211C47.0618 28.5833 45.6144 28.7256 44.8929 27.8765C44.194 27.0497 44.7576 25.6583 45.1905 24.956C46.7732 22.3777 49.1992 20.0261 51.3545 17.9057C54.3261 14.9807 59.3944 11.8779 58.957 7.10807C58.6233 3.45848 55.2054 2.12045 52.0535 3.4896C50.1596 4.31198 48.5949 5.6189 47.3594 7.25032C45.7451 9.37962 44.8839 12.3046 42.9585 14.1806C42.2641 14.8562 41.5832 16.2921 40.032 14.8829C39.3421 14.2561 39.5495 12.5847 39.6217 11.7267C39.7164 10.6021 39.9599 9.50409 39.9238 8.37054C39.8652 6.45462 39.2204 4.51202 37.9623 3.02729C35.3019 -0.102206 30.7341 0.035598 28.9665 3.9608C27.9114 6.30792 28.3758 8.99288 28.8177 11.4289C29.467 15.0252 30.4185 18.5547 29.6835 22.2177C29.5166 23.0578 30.8198 23.4179 30.9866 22.5733Z" fill="#46A358"/>
<path d="M30.6846 31.006C30.0488 35.5891 29.0071 40.0788 27.5552 44.4797C27.2846 45.2976 28.5923 45.6488 28.8583 44.8353C30.3103 40.4345 31.3519 35.9447 31.9877 31.3616C32.1049 30.517 30.8018 30.1569 30.6846 31.006Z" fill="#46A358"/>
<path d="M14.5058 43.973C14.3299 40.4435 11.8454 38.0608 8.98655 36.2471C7.13328 35.0691 5.10415 34.0867 3.51242 32.553C2.82703 31.8951 1.55093 30.6193 1.48329 29.5969C1.25333 26.1874 5.47842 28.8412 6.41632 29.628C7.07466 30.1837 8.03511 29.2413 7.37227 28.6856C5.89777 27.4454 3.25089 25.8317 1.22627 26.7653C-0.406046 27.5165 -0.135497 29.3791 0.491278 30.7216C3.12914 36.4249 12.8058 37.0784 13.153 43.973C13.1936 44.8265 14.5509 44.831 14.5058 43.973Z" fill="#46A358"/>
<path d="M44.8388 45.2931C46.5253 42.786 48.7483 40.7367 51.4718 39.3587C53.9519 38.1051 57.0271 37.8873 59.2231 36.1136C61.7437 34.0776 61.8745 29.0856 57.7035 29.2145C56.8332 29.2412 56.8332 30.5747 57.7035 30.5481C59.3493 30.7703 60.0167 31.6683 59.7146 33.2375C59.3764 34.1399 58.8037 34.8511 57.9966 35.3668C57.0091 36.0558 55.8096 36.3714 54.6733 36.727C53.2259 37.1805 51.8145 37.6561 50.4753 38.3674C47.6886 39.8521 45.4115 42.0303 43.6664 44.6219C43.184 45.3376 44.3564 46.0044 44.8388 45.2931Z" fill="#46A358"/>
<path d="M48.5139 33.562C42.7828 34.6289 40.668 40.2522 39.3107 45.1731C39.0807 46.0044 40.3884 46.3556 40.6139 45.5287C41.8494 41.0523 43.6305 35.8246 48.8746 34.8511C49.7269 34.6866 49.3661 33.402 48.5139 33.562Z" fill="#46A358"/>
<path d="M18.2933 13.2648C17.6214 10.6021 18.4601 7.68598 20.6336 5.89896C21.071 5.52111 21.567 5.23217 22.1126 5.03213C23.6141 5.34775 24.313 6.13901 24.2093 7.40592C24.2364 8.14384 24.0921 8.87287 23.9162 9.58412C23.56 11.02 22.9332 12.3847 22.4688 13.7894C21.2739 17.4079 19.5559 23.3246 22.7844 26.4051C23.0956 26.703 23.5781 26.2318 23.2624 25.9339C20.4307 23.2356 21.8826 18.048 22.8521 14.8162C23.6908 12.0157 25.9679 8.29498 24.4303 5.35219C23.2308 3.05841 20.4803 4.921 19.3124 6.26348C17.5854 8.25053 17.0037 10.9222 17.6395 13.4426C17.7477 13.8605 18.397 13.6827 18.2933 13.2648Z" fill="#46A358"/>
<path d="M32.5877 24.0624C32.9755 23.2133 33.7601 22.0131 34.8107 21.8709C36.4114 21.653 37.2366 23.6356 36.3799 24.947C35.5727 26.1828 34.0351 27.0452 32.7094 27.5742C30.5044 28.4499 29.0254 29.659 27.4247 31.3883C27.1316 31.7039 27.6095 32.1795 27.9026 31.8595C28.8721 30.8059 29.8641 29.7124 31.1267 28.9833C32.1322 28.401 33.3001 28.1743 34.3102 27.6053C35.5412 26.9074 37.5342 25.4004 37.6785 23.8801C37.7958 22.6532 36.4836 21.2307 35.2571 21.1552C33.7781 21.0618 32.5426 22.5554 32.006 23.729C31.8256 24.1113 32.4118 24.4536 32.5877 24.0624Z" fill="#46A358"/>
<path d="M7.30024 24.8359C7.44904 23.6668 7.89545 23.2356 8.63495 23.5512C8.89648 23.5557 9.11292 23.649 9.29329 23.8313C9.64951 24.0625 9.88399 24.4047 10.0959 24.7648C10.4747 25.4094 10.6505 26.1606 10.9301 26.8452C11.2863 27.7254 11.7553 28.4411 12.5624 28.9656C12.9277 29.2057 13.2659 28.6278 12.9051 28.3877C10.9211 27.0897 11.4757 23.7202 8.99568 22.9022C7.50766 22.4132 6.01062 23.6846 6.71856 25.1693C6.90343 25.5605 7.48511 25.2227 7.30024 24.8359Z" fill="#46A358"/>
<path d="M31.5323 7.58379C31.1806 5.66342 33.2322 4.13423 34.8014 5.5345C35.6672 6.30799 36.0009 7.73048 36.0054 8.84181C36.0144 10.3488 35.3155 11.6957 35.6131 13.2071C35.6942 13.6294 36.3481 13.4516 36.2669 13.0293C35.8926 11.1311 36.9658 9.31301 36.4833 7.34374C36.1947 6.16574 35.6086 4.85437 34.373 4.40984C32.1455 3.61413 30.5087 5.73899 30.8784 7.75716C30.9596 8.17946 31.6089 8.00165 31.5323 7.58379Z" fill="#46A358"/>
<path d="M31.194 11.98C32.2943 14.2605 32.8354 16.2609 32.7542 18.7902C32.7407 19.2214 33.417 19.217 33.4306 18.7902C33.5162 16.1319 32.93 14.0293 31.7802 11.6466C31.5908 11.2599 31.0091 11.5977 31.194 11.98Z" fill="#46A358"/>
<path d="M48.7349 10.073C49.3887 8.60165 50.6242 7.67258 52.0536 6.97467C52.464 6.76129 52.8878 6.58793 53.3297 6.45012C55.2371 7.09025 55.7196 7.97486 54.7772 9.11286C54.3263 9.81077 53.6724 10.4376 53.1088 11.051C50.9624 13.3848 48.6447 15.5452 46.1962 17.5634C45.8625 17.839 46.3405 18.3102 46.6742 18.0346C48.8882 16.212 50.994 14.2739 52.96 12.1935C54.1414 10.9443 56.4095 9.09063 55.9135 7.11692C54.926 3.20505 48.9784 7.86817 48.1487 9.73965C47.9773 10.1264 48.5635 10.4642 48.7349 10.073Z" fill="#46A358"/>
<path d="M44.9157 19.9861C42.7558 21.5508 41.4436 23.8313 41.1956 26.4585C41.155 26.8852 41.8314 26.8808 41.872 26.4585C42.0974 24.0847 43.3059 21.9731 45.2584 20.5595C45.6056 20.3106 45.2674 19.7283 44.9157 19.9861Z" fill="#46A358"/>
<path d="M49.1948 31.1083C49.6367 30.846 50.0786 30.5704 50.543 30.3437C50.8948 30.1525 51.2645 30.0058 51.6523 29.9036C52.3783 29.6058 52.6218 30.1614 52.3783 31.5706C51.9003 32.4997 49.312 32.5352 48.5094 32.4863C46.5028 32.3707 44.6135 31.8284 42.634 32.4285C42.2191 32.553 42.395 33.1976 42.8143 33.0731C45.1907 32.3485 47.5039 33.4021 49.9027 33.1398C51.2059 32.9931 53.0501 32.4019 53.6995 31.1572C54.0602 30.4637 53.9745 29.548 53.1854 29.1701C51.8913 28.5522 49.8712 29.9214 48.8521 30.5304C48.4824 30.7571 48.8205 31.335 49.1948 31.1083Z" fill="#46A358"/>
<path d="M39.1393 33.5886C35.6221 36.4025 34.3415 40.67 33.9853 44.973C33.9492 45.3998 34.6256 45.3998 34.6617 44.973C35.0044 40.8345 36.2354 36.7626 39.6172 34.0598C39.9554 33.7887 39.4729 33.3219 39.1393 33.5886Z" fill="#46A358"/>
<path d="M24.0023 34.7223C22.9562 36.5093 22.9877 38.4563 23.2177 40.4567C23.4116 42.1371 23.6325 43.7863 24.8094 45.0932C25.098 45.4132 25.576 44.942 25.2874 44.622C24.1331 43.3417 23.9888 41.5636 23.8354 39.9277C23.6731 38.2252 23.6957 36.576 24.5885 35.0557C24.8049 34.6867 24.2232 34.3533 24.0023 34.7223Z" fill="#46A358"/>
<path d="M5.34297 30.3303C3.38599 30.357 4.16157 32.3885 5.20769 33.1175C6.51535 34.0288 8.00338 34.6378 9.3922 35.4069C11.029 36.3137 11.6874 37.8429 12.9454 39.1187C13.2475 39.4254 13.7255 38.9542 13.4234 38.6475C12.1744 37.3806 11.5701 35.8647 9.96035 34.9579C9.14871 34.5 8.29647 34.1133 7.48031 33.6732C7.05645 33.4465 6.63259 33.2198 6.22677 32.9664C6.06444 32.8686 5.8976 32.7664 5.73527 32.6686C4.92813 32.3663 4.80187 31.8106 5.34748 31.0016C5.77585 30.9927 5.77585 30.3259 5.34297 30.3303Z" fill="#46A358"/>
<path d="M56.2381 33.402C56.2607 34.2911 55.8458 34.7756 54.9846 34.8601C54.5697 35.0245 54.1594 35.1846 53.7445 35.349C53.1268 35.5935 52.5045 35.838 51.8868 36.0825C50.4438 36.6515 48.9964 37.225 47.5535 37.794C47.1521 37.9495 47.328 38.5986 47.7338 38.4385C49.3842 37.7851 51.0345 37.1361 52.6849 36.4826C53.9069 35.9981 55.4671 35.6513 56.5538 34.8956C57.4962 34.2377 57.5232 32.873 56.2336 32.7352C55.8052 32.6863 55.8097 33.3576 56.2381 33.402Z" fill="#46A358"/>
<path d="M46.0022 38.7186C44.1895 40.4078 42.7601 42.3904 41.75 44.6397C41.5742 45.0265 42.1558 45.3688 42.3362 44.9776C43.3237 42.7816 44.708 40.8434 46.4846 39.1942C46.7958 38.8964 46.3178 38.4252 46.0022 38.7186Z" fill="#46A358"/>
<path d="M14.5507 41.6347C15.0693 42.3904 15.4029 43.2038 15.5608 44.1018C15.6329 44.5241 16.2867 44.3463 16.2146 43.924C16.0478 42.9771 15.6825 42.0925 15.1369 41.2968C14.8934 40.9456 14.3072 41.279 14.5507 41.6347Z" fill="#46A358"/>
</g>
<defs>
<clipPath id="clip0_1_365">
<rect width="61" height="46" fill="white"/>
</clipPath>
</defs>
        <path d="M30 46C...Z" fill="#46A358"/>
</symbol>

</svg>